<svg version="1.0" xmlns="http://www.w3.org/2000/svg"
 width="1024.000000pt" height="1024.000000pt" viewBox="0 0 1024.000000 1024.000000"
 preserveAspectRatio="xMidYMid meet">
<metadata>
Created by potrace 1.16, written by Peter Selinger 2001-2019
</metadata>
<g transform="translate(0.000000,1024.000000) scale(0.100000,-0.100000)"
fill="#740805" stroke="none">
<path d="M2522 8096 c-112 -28 -239 -113 -362 -242 -252 -264 -326 -569 -224
-922 35 -121 58 -165 127 -238 140 -150 327 -178 595 -89 94 31 121 46 190
100 44 35 102 90 128 122 27 32 178 243 336 468 297 425 378 531 378 498 0
-10 -72 -502 -159 -1093 -150 -1013 -159 -1080 -151 -1160 10 -110 23 -155 58
-211 37 -57 81 -79 161 -79 74 0 122 22 174 79 52 58 60 75 172 411 124 367
239 699 296 846 54 144 183 407 254 519 62 98 175 244 189 245 17 0 -6 -344
-70 -1075 -49 -557 -43 -719 31 -865 35 -68 92 -116 158 -130 67 -16 110 -8
168 29 84 53 112 112 201 415 160 551 308 1001 385 1176 34 78 102 192 212
360 117 178 262 331 326 347 70 16 78 8 106 -97 6 -25 12 -106 11 -180 0 -131
-4 -153 -111 -690 -368 -1846 -446 -2354 -427 -2780 20 -443 55 -661 151 -941
78 -225 171 -381 321 -538 189 -199 384 -302 630 -333 175 -22 388 27 629 147
185 91 318 189 470 346 348 360 570 824 626 1311 16 142 7 596 -16 718 -41
230 -108 366 -249 505 -147 146 -300 210 -526 221 -208 11 -332 -38 -486 -191
-133 -131 -234 -311 -300 -530 -36 -121 -45 -321 -19 -446 26 -133 113 -321
181 -396 22 -25 22 -23 -5 23 -73 122 -111 274 -111 444 0 234 59 419 203 635
58 86 181 204 254 243 310 164 721 -30 836 -394 71 -225 76 -599 11 -911 -19
-94 -92 -308 -143 -416 -97 -211 -237 -410 -424 -603 -133 -138 -240 -217
-412 -303 -175 -87 -239 -104 -390 -105 -151 -1 -194 12 -317 93 -274 180
-436 538 -498 1102 -38 341 -41 599 -10 870 54 471 213 1442 406 2474 l56 300
-5 185 c-5 201 -16 260 -68 362 -58 115 -144 175 -293 204 -70 14 -95 15 -143
5 -299 -59 -654 -505 -886 -1111 -65 -169 -142 -416 -183 -582 -15 -65 -29
-116 -31 -114 -2 2 6 99 17 217 31 336 59 699 66 880 7 155 6 169 -16 235 -49
150 -115 237 -199 262 -92 28 -222 2 -309 -61 -171 -126 -355 -390 -500 -717
-90 -203 -230 -594 -233 -649 0 -10 -2 -11 -6 -4 -2 7 39 358 93 779 92 728
97 771 85 837 -22 129 -76 187 -181 195 -131 10 -219 -72 -442 -409 -85 -129
-221 -341 -302 -472 -237 -380 -323 -463 -525 -503 -191 -38 -320 24 -396 189
-58 126 -70 184 -69 342 1 121 5 152 28 228 57 189 154 333 316 468 141 117
268 151 371 99 31 -16 40 -18 31 -7 -21 24 -92 55 -142 61 -25 3 -69 -1 -98
-8z"/>
</g>
</svg>
